# xmcd CD database file
#
# Track frame offsets:
#	182
#	37467
#	71032
#	107055
#	131827
#	162065
#	189060
#	219875
#
# Disc length: 3390 seconds
#
# Revision: 0
# Processed by: cddbd v1.5.2PL0 Copyright (c) Steve Scherf et al.
# Submitted via: CDex 1.70beta2
#
DISCID=6f0d3c08
DTITLE=Erik Ørum von Spreckelsen Quartet - I'll see you soon
DYEAR=1996
DGENRE=Jazz
TTITLE0=Reflection
TTITLE1=I can't figure it out
TTITLE2=It happens
TTITLE3=Night after night
TTITLE4=Get goin'
TTITLE5=I'll see you soon
TTITLE6=Nothing at all
TTITLE7=I mean you
EXTD=YEAR: 1996
EXTT0=
EXTT1=
EXTT2=
EXTT3=
EXTT4=
EXTT5=
EXTT6=
EXTT7=
PLAYORDER=
